  <svg version="1.1" xmlns="http://www.w3.org/2000/svg">
<path d="M0 0 C7.13695786 7.71061405 9.35279382 16.29709533 9.30102539 26.5402832 C9.30117142 27.30179184 9.30131744 28.06330048 9.3014679 28.84788513 C9.30077387 31.35304662 9.2930054 33.85813282 9.28515625 36.36328125 C9.28329026 38.10491393 9.28186721 39.84654714 9.28086853 41.58818054 C9.27705762 46.16335509 9.26723953 50.7384977 9.25616455 55.31365967 C9.24591975 59.98579476 9.24136434 64.65793503 9.23632812 69.33007812 C9.22561595 78.49090168 9.20803072 87.65169318 9.1875 96.8125 C1.2675 96.8125 -6.6525 96.8125 -14.8125 96.8125 C-15.1425 82.2925 -15.4725 67.7725 -15.8125 52.8125 C-16.8025 54.4625 -17.7925 56.1125 -18.8125 57.8125 C-24.00689922 62.47414033 -30.03657554 63.40235577 -36.8125 63.8125 C-45.27976722 63.23600521 -51.63982861 60.32123688 -57.5 54.25 C-66.07738959 43.62485524 -66.06858825 30.89360787 -64.8125 17.8125 C-63.18957371 9.59757536 -59.25204859 2.05901029 -52.4140625 -2.94140625 C-36.3572371 -12.94678544 -14.54318951 -13.20409497 0 0 Z M-37.8125 17.8125 C-40.94451418 22.15690676 -41.1842532 25.57123476 -40.390625 30.6953125 C-39.33526747 34.56020292 -37.19646772 36.77452421 -34.0625 39.125 C-28.89172388 40.70495937 -25.13875936 40.50019004 -20.4375 38.0625 C-17.3187335 35.38927157 -16.05444419 33.51736257 -15.4765625 29.4453125 C-15.38749646 23.72727243 -15.81863343 20.25012952 -19.8125 15.8125 C-22.80085411 13.46450748 -26.03473663 13.38825565 -29.78515625 13.5 C-33.23906706 14.03239473 -35.23094495 15.53112577 -37.8125 17.8125 Z " fill="#252525" transform="translate(297.8125,66.1875)"/>
<path d="M0 0 C7.05561936 6.51974953 10.83809449 15.2527919 11.3125 24.8515625 C11.34226235 26.45029684 11.35476725 28.04942936 11.3515625 29.6484375 C11.34995117 30.48528076 11.34833984 31.32212402 11.34667969 32.18432617 C11.16614093 41.32896841 8.80752187 49.1954877 2.9765625 56.3984375 C-3.41003151 62.50118289 -10.24501433 65.38411707 -19.0234375 65.3984375 C-26.00056692 64.81077729 -30.74912304 63.01346265 -36.0234375 58.3984375 C-36.6834375 57.0784375 -37.3434375 55.7584375 -38.0234375 54.3984375 C-38.3534375 68.9184375 -38.6834375 83.4384375 -39.0234375 98.3984375 C-46.9434375 98.3984375 -54.8634375 98.3984375 -63.0234375 98.3984375 C-63.11411622 88.28810857 -63.18737035 78.17805354 -63.23068619 68.06740856 C-63.25148462 63.37168858 -63.27965922 58.67626331 -63.32519531 53.98071289 C-63.36893131 49.44193472 -63.39263272 44.90343849 -63.40294647 40.36446571 C-63.41028837 38.6402474 -63.42462433 36.916043 -63.44635773 35.19194603 C-63.61203051 21.49373643 -62.51989695 10.84350176 -52.5 0.5625 C-38.25164828 -11.88795245 -14.6737101 -11.61432653 0 0 Z M-36.0234375 19.3984375 C-39.15545168 23.74284426 -39.3951907 27.15717226 -38.6015625 32.28125 C-37.54620497 36.14614042 -35.40740522 38.36046171 -32.2734375 40.7109375 C-27.10266138 42.29089687 -23.34969686 42.08612754 -18.6484375 39.6484375 C-15.529671 36.97520907 -14.26538169 35.10330007 -13.6875 31.03125 C-13.59843396 25.31320993 -14.02957093 21.83606702 -18.0234375 17.3984375 C-21.01179161 15.05044498 -24.24567413 14.97419315 -27.99609375 15.0859375 C-31.45000456 15.61833223 -33.44188245 17.11706327 -36.0234375 19.3984375 Z " fill="#252525" transform="translate(192.0234375,64.6015625)"/>
<path d="M0 0 C8.14910197 5.56086518 12.62050275 12.48201101 15 22 C15 26.95 15 31.9 15 37 C-0.51 37 -16.02 37 -32 37 C-28.95343069 42.35446316 -28.95343069 42.35446316 -24 45 C-19.80545691 45.55673026 -16.34570185 45.89303432 -12.72973633 43.4934082 C-9.54537817 41.75128149 -7.64704001 41.651584 -4.04296875 41.70703125 C-2.93115234 41.71669922 -1.81933594 41.72636719 -0.67382812 41.73632812 C0.47666016 41.76146484 1.62714844 41.78660156 2.8125 41.8125 C3.98232422 41.82603516 5.15214844 41.83957031 6.35742188 41.85351562 C9.238752 41.88879722 12.11913904 41.9380972 15 42 C14.19095305 50.24539343 11.94951108 55.43832834 5.875 61.25 C-4.60196655 69.37408847 -17.32976658 69.15041003 -30 68 C-38.80906356 66.4935803 -45.21656654 61.70044634 -51 55 C-57.60593358 44.62792498 -58.09987036 34.00544993 -57 22 C-55.01664356 13.07973346 -50.21529563 6.51964269 -43 1 C-30.85248261 -5.99697002 -12.2748452 -7.19419735 0 0 Z M-29 18 C-30.485 20.475 -30.485 20.475 -32 23 C-25.07 23 -18.14 23 -11 23 C-11.52332645 18.25258256 -11.52332645 18.25258256 -13.5625 16.1875 C-18.97426226 13.55100044 -24.430492 14.21383623 -29 18 Z " fill="#262626" transform="translate(444,61)"/>
<path d="M0 0 C7.92 0 15.84 0 24 0 C24.03738281 2.74570312 24.07476562 5.49140625 24.11328125 8.3203125 C24.15954557 10.99129012 24.21076134 13.66213033 24.26245117 16.33300781 C24.29562296 18.18350819 24.32367887 20.03410786 24.34643555 21.88476562 C24.3801245 24.55121003 24.4324466 27.2167509 24.48828125 29.8828125 C24.49467117 30.70492218 24.5010611 31.52703186 24.50764465 32.37405396 C24.6325314 37.2975338 25.31483365 40.71686667 28 45 C31.34870986 47.63112918 34.87988064 47.36141398 39 47 C42.03051154 45.72045068 43.5368817 44.85447871 45.11083984 41.95043945 C46.32061739 37.9361172 46.35580141 34.15299402 46.4140625 29.98046875 C46.43342865 29.12189774 46.4527948 28.26332672 46.4727478 27.3787384 C46.53231556 24.64842526 46.57883734 21.91806943 46.625 19.1875 C46.66320079 17.33136227 46.70225375 15.47524188 46.7421875 13.61914062 C46.83959555 9.07951952 46.91934419 4.5400731 47 0 C54.92 0 62.84 0 71 0 C71.0923128 6.20803605 71.17180547 12.41364818 71.21972656 18.62182617 C71.23972278 20.72933057 71.26692893 22.83678034 71.30175781 24.9440918 C71.73314319 51.73439234 71.73314319 51.73439234 63.375 60.875 C55.47111182 68.99682627 46.14760534 71.51479411 35 72 C22.93983167 71.45118688 13.93739777 67.77834565 5.7890625 58.8671875 C-1.49395324 47.19528018 -0.46966384 35.10319857 -0.25 21.8125 C-0.22990589 19.69467833 -0.21166027 17.57683827 -0.1953125 15.45898438 C-0.15496944 10.30515901 -0.07663821 5.15391975 0 0 Z " fill="#252525" transform="translate(311,58)"/>
<path d="M0 0 C1.74603516 -0.02416992 1.74603516 -0.02416992 3.52734375 -0.04882812 C11.14272577 -0.05309206 17.49208117 0.99705283 24.75 3.3125 C24.75 10.5725 24.75 17.8325 24.75 25.3125 C22.460625 24.6525 20.17125 23.9925 17.8125 23.3125 C9.07681154 20.96880107 0.7320836 20.91230816 -8.25 21.3125 C-8.25 22.3025 -8.25 23.2925 -8.25 24.3125 C-6.58324219 24.67601562 -6.58324219 24.67601562 -4.8828125 25.046875 C19.65543934 30.51975245 19.65543934 30.51975245 26.625 39.8125 C28.76084973 46.45736583 29.05700891 54.21605449 26.3125 60.75 C22.82301492 66.60293065 16.437967 70.22546009 9.9699707 71.9375 C4.86091347 72.80052781 -0.33382655 72.63911523 -5.5 72.625 C-7.24603516 72.64916992 -7.24603516 72.64916992 -9.02734375 72.67382812 C-16.49442671 72.67800902 -23.20839657 71.90162509 -30.25 69.3125 C-31.25 68.3125 -31.25 68.3125 -31.36352539 66.27124023 C-31.35828857 65.39669189 -31.35305176 64.52214355 -31.34765625 63.62109375 C-31.34443359 62.67685547 -31.34121094 61.73261719 -31.33789062 60.75976562 C-31.32951172 59.76654297 -31.32113281 58.77332031 -31.3125 57.75 C-31.30798828 56.75291016 -31.30347656 55.75582031 -31.29882812 54.72851562 C-31.28700007 52.25645151 -31.27051849 49.78450482 -31.25 47.3125 C-29.68765625 47.745625 -29.68765625 47.745625 -28.09375 48.1875 C-17.94342472 50.86309379 -8.72499071 51.82003656 1.75 51.3125 C1.42 50.3225 1.09 49.3325 0.75 48.3125 C-1.20652869 47.43271632 -1.20652869 47.43271632 -3.625 46.91796875 C-4.98044922 46.56702148 -4.98044922 46.56702148 -6.36328125 46.20898438 C-8.25557762 45.74423229 -10.14878261 45.28316084 -12.04296875 44.82617188 C-20.03768133 42.74574244 -26.30282496 39.71063382 -31.77734375 33.3984375 C-34.76010646 27.14808593 -34.5542155 19.27923839 -32.40234375 12.734375 C-29.0056453 6.70091742 -23.63429071 3.59853047 -17.3203125 1.19921875 C-11.67791135 -0.3238834 -5.79815639 -0.01584196 0 0 Z " fill="#272727" transform="translate(497.25,56.6875)"/>
<path d="M0 0 C7.92 0 15.84 0 24 0 C24 5.28 24 10.56 24 16 C30.6 16 37.2 16 44 16 C44 22.93 44 29.86 44 37 C37.4 37 30.8 37 24 37 C25.49549634 47.93179273 25.49549634 47.93179273 31 57 C33.93041397 58.35166696 36.87075867 59.23421735 40 60 C41.32 60.33 42.64 60.66 44 61 C44 68.92 44 76.84 44 85 C31.27388929 85 21.40079711 84.05270236 12.08984375 75.1796875 C-1.53065799 60.43137351 -0.40782077 42.05333161 -0.1875 23.1875 C-0.17242541 20.93425374 -0.15874192 18.68099772 -0.14648438 16.42773438 C-0.11627279 10.95138082 -0.05751183 5.47640409 0 0 Z " fill="#252525" transform="translate(528,43)"/>
<path d="M0 0 C7.92 0 15.84 0 24 0 C24 5.28 24 10.56 24 16 C30.6 16 37.2 16 44 16 C44 22.93 44 29.86 44 37 C37.4 37 30.8 37 24 37 C25.49549634 47.93179273 25.49549634 47.93179273 31 57 C33.93041397 58.35166696 36.87075867 59.23421735 40 60 C41.32 60.33 42.64 60.66 44 61 C44 68.92 44 76.84 44 85 C31.27388929 85 21.40079711 84.05270236 12.08984375 75.1796875 C-1.53065799 60.43137351 -0.40782077 42.05333161 -0.1875 23.1875 C-0.17242541 20.93425374 -0.15874192 18.68099772 -0.14648438 16.42773438 C-0.11627279 10.95138082 -0.05751183 5.47640409 0 0 Z " fill="#252525" transform="translate(8,43)"/>
<path d="M0 0 C0 7.92 0 15.84 0 24 C-2.97 24.99 -5.94 25.98 -9 27 C-13.87951934 31.87951934 -14.16917763 36.34123086 -14.31640625 42.94921875 C-14.33718735 43.72183548 -14.35796844 44.49445221 -14.37937927 45.29048157 C-14.44471038 47.7560648 -14.50368315 50.22175361 -14.5625 52.6875 C-14.60570087 54.36003691 -14.64931566 56.03256319 -14.69335938 57.70507812 C-14.80115324 61.80327882 -14.90034835 65.90156084 -15 70 C-22.92 70 -30.84 70 -39 70 C-39.09247049 64.37984892 -39.17191042 58.76239919 -39.21972656 53.14208984 C-39.23968492 51.23542271 -39.2668616 49.32881552 -39.30175781 47.42236328 C-39.54825651 33.59668622 -39.45474132 21.08731216 -30.0546875 9.97265625 C-21.05908838 1.33619702 -12.27085006 0 0 0 Z " fill="#252525" transform="translate(94,58)"/>
<path d="M0 0 C7.92 0 15.84 0 24 0 C24 23.1 24 46.2 24 70 C16.08 70 8.16 70 0 70 C0 46.9 0 23.8 0 0 Z " fill="#232323" transform="translate(99,58)"/>
<path d="M0 0 C1.03769531 -0.02578125 2.07539062 -0.0515625 3.14453125 -0.078125 C7.57031333 0.39910952 10.18356466 2.0383539 13 5.4375 C14.54970573 9.10785568 14.87983655 12.36226397 14.1875 16.25 C12.09013961 20.29490932 10.42552215 22.60146208 6.1875 24.25 C1.32122306 24.80842522 -3.26235798 24.89589251 -7.8125 23 C-10.71993866 20.45599117 -12.58659686 18.51317504 -13.28125 14.62890625 C-13.36613695 6.97846967 -13.36613695 6.97846967 -10.4375 3.125 C-6.64174035 0.4137431 -4.64505215 0.06873073 0 0 Z " fill="#FD5A5F" transform="translate(110.8125,28.75)"/>
<path d="M0 0 C1.98 0 3.96 0 6 0 C6.33 3.96 6.66 7.92 7 12 C8.32 11.34 9.64 10.68 11 10 C11.70176588 7.58320293 11.70176588 7.58320293 11.75 4.875 C11.80671875 3.96492187 11.8634375 3.05484375 11.921875 2.1171875 C11.94765625 1.41851562 11.9734375 0.71984375 12 0 C13.98 0 15.96 0 18 0 C18.11622939 3.74973906 18.1872595 7.49901464 18.25 11.25 C18.30027344 12.84521484 18.30027344 12.84521484 18.3515625 14.47265625 C18.36445312 15.49746094 18.37734375 16.52226562 18.390625 17.578125 C18.41157227 18.52075195 18.43251953 19.46337891 18.45410156 20.43457031 C17.86482356 23.76367423 16.61022331 24.9243394 14 27 C11.5625 27.49609375 11.5625 27.49609375 9 27.4375 C8.154375 27.43621094 7.30875 27.43492187 6.4375 27.43359375 C3.53454277 26.91720232 2.11338382 26.03582845 0 24 C-0.25 21.3125 -0.25 21.3125 0 19 C3.94727588 18.82057837 6.5980513 18.90649311 10 21 C10.33 20.01 10.66 19.02 11 18 C9.741875 18.061875 8.48375 18.12375 7.1875 18.1875 C4.70535059 18.30957292 3.40274258 18.23733045 1.25 16.96875 C-0.6852623 13.92071188 -0.31438487 10.79695387 -0.1875 7.3125 C-0.17396484 6.61060547 -0.16042969 5.90871094 -0.14648438 5.18554688 C-0.11120182 3.45670171 -0.05739583 1.72825235 0 0 Z " fill="#F25D61" transform="translate(539,145)"/>
<path d="M0 0 C1.98 0 3.96 0 6 0 C6.14575327 3.39537852 6.23421542 6.78994902 6.3125 10.1875 C6.35439453 11.14720703 6.39628906 12.10691406 6.43945312 13.09570312 C6.56273297 20.2212783 6.56273297 20.2212783 3.73046875 24.140625 C0.39087682 26.41479633 -1.16382643 26.70508166 -5.0625 26.40234375 C-8.48406426 25.6918173 -9.87433604 24.78993395 -12 22 C-12.87245746 17.3520408 -12.89325208 13.44294567 -10.375 9.375 C-7.37817286 7.63999481 -5.40932922 7.62118564 -2 8 C-1.67 8.33 -1.34 8.66 -1 9 C-0.67 6.03 -0.34 3.06 0 0 Z M-4 14 C-4.66 15.32 -5.32 16.64 -6 18 C-4.02 18.99 -4.02 18.99 -2 20 C-1.34 18.68 -0.68 17.36 0 16 C-1.32 15.34 -2.64 14.68 -4 14 Z " fill="#F15E62" transform="translate(512,137)"/>
<path d="M0 0 C1.98 0 3.96 0 6 0 C6.33 3.3 6.66 6.6 7 10 C7.33 9.67 7.66 9.34 8 9 C13.79588336 8.53259005 13.79588336 8.53259005 16 9 C18.68405509 11.4078436 18.98601616 12.83517719 19.29296875 16.453125 C19.25816406 17.70609375 19.22335937 18.9590625 19.1875 20.25 C19.16042969 21.51328125 19.13335937 22.7765625 19.10546875 24.078125 C19.07066406 25.04234375 19.03585937 26.0065625 19 27 C17.02 27 15.04 27 13 27 C12.67 23.7 12.34 20.4 12 17 C10.68 16.67 9.36 16.34 8 16 C6.33657163 17.66342837 6.63951903 19.7825709 6.4375 22.0625 C6.31181641 23.44115234 6.31181641 23.44115234 6.18359375 24.84765625 C6.12300781 25.55792969 6.06242187 26.26820313 6 27 C4.02 27 2.04 27 0 27 C0 18.09 0 9.18 0 0 Z " fill="#F65C60" transform="translate(446,136)"/>
<path d="M0 0 C2.1953125 0.45703125 2.1953125 0.45703125 5.2578125 2.14453125 C8.29485079 7.33688703 7.58229526 12.58349285 7.1953125 18.45703125 C4.94637296 18.56526898 2.69593675 18.6427277 0.4453125 18.70703125 C-1.43414063 18.77664062 -1.43414063 18.77664062 -3.3515625 18.84765625 C-6.8046875 18.45703125 -6.8046875 18.45703125 -9.2265625 16.71875 C-11.79603511 13.03626327 -11.53451885 9.77455986 -10.8046875 5.45703125 C-8.37402042 0.27865355 -5.37486608 -0.38138489 0 0 Z M-2.8046875 6.45703125 C-3.91305173 8.34019284 -3.91305173 8.34019284 -4.8046875 10.45703125 C-4.4746875 11.11703125 -4.1446875 11.77703125 -3.8046875 12.45703125 C-2.4846875 12.45703125 -1.1646875 12.45703125 0.1953125 12.45703125 C0.5253125 11.13703125 0.8553125 9.81703125 1.1953125 8.45703125 C-0.1246875 7.79703125 -1.4446875 7.13703125 -2.8046875 6.45703125 Z " fill="#EE5E62" transform="translate(529.8046875,144.54296875)"/>
<path d="M0 0 C3.55247432 0.87379409 4.94828114 2.4927342 6.9375 5.4765625 C7.63597125 8.3162489 7.63597125 10.6368761 6.9375 13.4765625 C4.94828114 16.4603908 3.55247432 18.07933091 0 18.953125 C-3.92313492 19.23547183 -5.73362371 18.69581336 -9.0625 16.4765625 C-11.28175086 13.14768621 -11.82140933 11.33719742 -11.5390625 7.4140625 C-10.07519871 1.46261629 -5.59135555 -0.40240816 0 0 Z M-3.0625 6.4765625 C-3.7225 7.7965625 -4.3825 9.1165625 -5.0625 10.4765625 C-3.0825 11.4665625 -3.0825 11.4665625 -1.0625 12.4765625 C-0.4025 11.1565625 0.2575 9.8365625 0.9375 8.4765625 C-0.3825 7.8165625 -1.7025 7.1565625 -3.0625 6.4765625 Z " fill="#EC5F63" transform="translate(477.0625,144.5234375)"/>
<path d="M0 0 C0.98226562 0.00644531 1.96453125 0.01289063 2.9765625 0.01953125 C5.375 0.1875 5.375 0.1875 6.375 1.1875 C6.41563832 2.85367115 6.417721 4.52138095 6.375 6.1875 C4.395 6.1875 2.415 6.1875 0.375 6.1875 C2.355 7.1775 4.335 8.1675 6.375 9.1875 C6.5625 12.5625 6.5625 12.5625 6.375 16.1875 C2.98250652 18.44916232 1.72298499 18.43265545 -2.25 18.375 C-3.23226562 18.36855469 -4.21453125 18.36210937 -5.2265625 18.35546875 C-7.625 18.1875 -7.625 18.1875 -8.625 17.1875 C-8.66563832 15.52132885 -8.667721 13.85361905 -8.625 12.1875 C-6.645 12.1875 -4.665 12.1875 -2.625 12.1875 C-4.605 11.1975 -6.585 10.2075 -8.625 9.1875 C-8.8125 5.8125 -8.8125 5.8125 -8.625 2.1875 C-5.23250652 -0.07416232 -3.97298499 -0.05765545 0 0 Z " fill="#E66164" transform="translate(566.625,144.8125)"/>
<path d="M0 0 C1.98 0 3.96 0 6 0 C6 8.91 6 17.82 6 27 C4.02 27 2.04 27 0 27 C0 18.09 0 9.18 0 0 Z " fill="#FB5B5F" transform="translate(485,136)"/>
<path d="M0 0 C1.98 0 3.96 0 6 0 C6 5.94 6 11.88 6 18 C4.02 18 2.04 18 0 18 C0 12.06 0 6.12 0 0 Z " fill="#FF5A5F" transform="translate(492,145)"/>
<path d="M0 0 C1.2065625 0.0309375 1.2065625 0.0309375 2.4375 0.0625 C2.81968767 1.71864657 3.15145102 3.38707024 3.4375 5.0625 C2.4375 6.0625 2.4375 6.0625 -0.125 6.125 C-1.3315625 6.0940625 -1.3315625 6.0940625 -2.5625 6.0625 C-2.94468767 4.40635343 -3.27645102 2.73792976 -3.5625 1.0625 C-2.5625 0.0625 -2.5625 0.0625 0 0 Z " fill="#E36265" transform="translate(495.5625,137.9375)"/>
<path d="M0 0 C0.66 0.33 1.32 0.66 2 1 C-1.3 4.3 -4.6 7.6 -8 11 C-8 7.0234755 -6.61988497 5.9109833 -4 3 C-1.75 1.1875 -1.75 1.1875 0 0 Z " fill="#4A4A4A" transform="translate(70,63)"/>
</svg>