<?xml version="1.0" standalone="no"?>
<!DOCTYPE svg PUBLIC "-//W3C//DTD SVG 20010904//EN"
 "http://www.w3.org/TR/2001/REC-SVG-20010904/DTD/svg10.dtd">
<svg version="1.0" xmlns="http://www.w3.org/2000/svg"
 width="400.000000pt" height="400.000000pt" viewBox="0 0 400.000000 400.000000"
 preserveAspectRatio="xMidYMid meet">

<g transform="translate(0.000000,400.000000) scale(0.100000,-0.100000)"
fill="#000000" stroke="none">
<path d="M656 3628 c-10 -13 -16 -44 -16 -74 0 -47 6 -61 63 -145 34 -52 77
-104 96 -116 l34 -23 1130 0 c837 0 1140 3 1169 12 52 15 110 74 147 147 17
33 35 62 41 66 16 10 12 108 -6 133 -8 12 -25 22 -38 22 -26 0 -56 -29 -56
-54 0 -33 -20 -54 -67 -73 -46 -17 -105 -18 -1173 -18 -1056 0 -1128 1 -1171
18 -43 16 -47 21 -53 59 -4 23 -12 48 -18 55 -17 21 -65 16 -82 -9z"/>
<path d="M900 3135 l0 -75 -42 -27 c-59 -37 -239 -116 -323 -142 -38 -12 -95
-24 -126 -28 -54 -5 -58 -4 -96 31 -43 38 -82 46 -102 22 -19 -23 -16 -75 6
-104 41 -55 207 -127 423 -184 l85 -22 1210 -4 c864 -2 1233 0 1290 8 95 14
184 37 303 81 215 78 287 145 236 217 -23 34 -63 29 -103 -13 -28 -31 -39 -35
-81 -35 -81 0 -308 80 -432 152 l-67 38 -3 74 -3 74 -1087 6 -1088 6 0 -75z"/>
<path d="M780 2280 l0 -250 85 0 85 0 0 134 c0 94 4 137 12 142 7 4 41 7 77 7
88 -1 91 -6 91 -160 l0 -123 85 0 85 0 0 134 c0 87 4 137 11 142 6 3 39 7 73
8 94 2 96 -1 96 -156 l0 -129 78 3 77 3 3 248 2 247 -430 0 -430 0 0 -250z"/>
<path d="M1710 2465 l0 -65 280 0 280 0 0 65 0 65 -280 0 -280 0 0 -65z"/>
<path d="M2332 2283 l3 -248 77 -3 77 -3 3 138 3 138 79 3 c57 2 82 -1 87 -10
5 -7 9 -71 9 -141 l0 -128 88 3 87 3 3 138 3 137 83 0 83 0 7 -92 c3 -50 6
-113 6 -140 l0 -48 80 0 80 0 0 250 0 250 -430 0 -430 0 2 -247z"/>
<path d="M1946 2250 c-66 -20 -116 -95 -116 -175 l0 -45 160 0 160 0 0 38 c-1
46 -22 106 -47 134 -37 41 -107 63 -157 48z"/>
<path d="M539 2093 c-18 -20 -16 -152 2 -207 13 -38 13 -39 -21 -69 -58 -49
-110 -67 -214 -74 l-96 -6 0 56 c0 66 -17 90 -64 85 l-31 -3 -3 -98 c-2 -90
-1 -102 24 -146 14 -27 78 -103 141 -170 l115 -121 1591 0 1592 0 104 107 c57
60 121 135 142 167 38 58 39 61 39 151 0 100 -7 115 -52 115 -34 0 -48 -28
-48 -97 l0 -46 -99 5 c-113 6 -171 28 -221 84 -29 33 -29 36 -15 64 19 36 21
190 3 208 -16 16 -70 16 -86 0 -7 -7 -12 -38 -12 -70 l0 -58 -1344 0 -1344 0
-4 61 c-3 38 -10 64 -19 70 -23 14 -65 10 -80 -8z"/>
<path d="M390 975 l0 -305 70 0 70 0 0 305 0 305 -70 0 -70 0 0 -305z"/>
<path d="M1250 973 l0 -303 70 0 70 0 0 303 0 302 -70 0 -70 0 0 -302z"/>
<path d="M2580 975 l0 -305 70 0 70 0 0 305 0 305 -70 0 -70 0 0 -305z"/>
<path d="M3440 975 l0 -305 70 0 70 0 0 305 0 305 -70 0 -70 0 0 -305z"/>
<path d="M1884 1182 c-73 -28 -130 -68 -169 -122 -64 -87 -68 -107 -74 -403
l-6 -268 -90 -1 c-77 -1 -90 1 -93 16 -3 15 -46 16 -585 14 l-582 -3 -5 -30
c-5 -27 -9 -30 -41 -27 l-36 3 -12 -93 c-6 -51 -14 -108 -17 -125 l-6 -33
1816 0 c1446 0 1816 3 1816 13 0 6 -7 44 -15 82 -8 39 -15 87 -15 107 0 31 -4
39 -24 44 -13 3 -32 4 -42 2 -14 -2 -20 5 -24 27 l-5 30 -581 3 c-575 2 -582
2 -587 -18 -5 -18 -13 -20 -85 -20 -50 0 -84 4 -88 11 -4 7 -8 127 -8 268 -2
240 -3 260 -25 313 -65 167 -263 266 -417 210z"/>
<path d="M795 1105 c-25 -24 -25 -25 -25 -230 l0 -205 100 0 100 0 0 173 c0
184 -8 235 -42 267 -32 30 -102 27 -133 -5z"/>
<path d="M3033 1106 l-28 -24 -3 -200 -3 -199 38 -6 c21 -4 66 -7 101 -7 l62
0 0 201 0 201 -29 29 c-39 38 -97 40 -138 5z"/>
<path d="M326 573 c-3 -21 -6 -50 -6 -65 l0 -28 560 0 560 0 0 65 0 65 -554 0
-553 0 -7 -37z"/>
<path d="M2530 545 l0 -65 553 0 552 0 -3 65 -4 65 -549 0 -549 0 0 -65z"/>
</g>
</svg>
